<svg width="364" height="20" viewBox="0 0 364 20" fill="none" xmlns="http://www.w3.org/2000/svg">
<mask id="path-1-inside-1_223_28" fill="white">
<path d="M0 5H145C147.761 5 150 7.23858 150 10C150 12.7614 147.761 15 145 15H0V5Z"/>
</mask>
<path d="M0 3H145C148.866 3 152 6.13401 152 10H148C148 8.34315 146.657 7 145 7H0V3ZM152 10C152 13.866 148.866 17 145 17H0V13H145C146.657 13 148 11.6569 148 10H152ZM0 15V5V15ZM145 3C148.866 3 152 6.13401 152 10C152 13.866 148.866 17 145 17V13C146.657 13 148 11.6569 148 10C148 8.34315 146.657 7 145 7V3Z" fill="#800000" mask="url(#path-1-inside-1_223_28)"/>
<mask id="path-3-inside-2_223_28" fill="white">
<path d="M364 5H219C216.239 5 214 7.23858 214 10C214 12.7614 216.239 15 219 15H364V5Z"/>
</mask>
<path d="M364 3H219C215.134 3 212 6.13401 212 10H216C216 8.34315 217.343 7 219 7H364V3ZM212 10C212 13.866 215.134 17 219 17H364V13H219C217.343 13 216 11.6569 216 10H212ZM364 15V5V15ZM219 3C215.134 3 212 6.13401 212 10C212 13.866 215.134 17 219 17V13C217.343 13 216 11.6569 216 10C216 8.34315 217.343 7 219 7V3Z" fill="#800000" mask="url(#path-3-inside-2_223_28)"/>
<path d="M168.292 10L182.081 0L195.87 10L182.081 20L168.292 10Z" fill="#FF9933"/>
<path d="M195.87 9.66667L205.063 3L214.256 9.66667L205.063 16.3333L195.87 9.66667Z" fill="#800000"/>
<path d="M149.906 9.66667L159.099 3L168.291 9.66667L159.099 16.3333L149.906 9.66667Z" fill="#800000"/>
</svg>
